<mxfile host="app.diagrams.net" modified="2021-10-24T20:47:35.852Z" agent="5.0 (Windows NT 10.0; Win64; x64) AppleWebKit/537.36 (KHTML, like Gecko) Chrome/95.0.4638.54 Safari/537.36" etag="--t4rTZIm8MV0Rv8uaT9" version="15.5.9" type="github">
  <diagram id="_a-aIh4dpbyZ4UQrrbjx" name="Page-1">
    <mxGraphModel dx="401" dy="609" grid="1" gridSize="10" guides="1" tooltips="1" connect="1" arrows="1" fold="1" page="1" pageScale="1" pageWidth="850" pageHeight="1100" math="0" shadow="0">
      <root>
        <mxCell id="0" />
        <mxCell id="1" parent="0" />
        <mxCell id="gyNcbMQ7tzNAgJM0qvGM-2" value="@apollo/client" style="swimlane;" vertex="1" parent="1">
          <mxGeometry x="250" y="20" width="290" height="90" as="geometry" />
        </mxCell>
        <mxCell id="gyNcbMQ7tzNAgJM0qvGM-3" value="Apollo Client passes data into application view layer" style="text;html=1;align=center;verticalAlign=middle;resizable=0;points=[];autosize=1;strokeColor=none;fillColor=none;" vertex="1" parent="gyNcbMQ7tzNAgJM0qvGM-2">
          <mxGeometry y="50" width="290" height="20" as="geometry" />
        </mxCell>
        <mxCell id="gyNcbMQ7tzNAgJM0qvGM-4" value="" style="endArrow=classic;html=1;rounded=0;exitX=0.75;exitY=0;exitDx=0;exitDy=0;" edge="1" parent="1" source="gyNcbMQ7tzNAgJM0qvGM-8">
          <mxGeometry width="50" height="50" relative="1" as="geometry">
            <mxPoint x="468" y="110" as="sourcePoint" />
            <mxPoint x="460" y="110" as="targetPoint" />
          </mxGeometry>
        </mxCell>
        <mxCell id="gyNcbMQ7tzNAgJM0qvGM-8" value="apollo-server-express" style="swimlane;" vertex="1" parent="1">
          <mxGeometry x="295" y="200" width="200" height="100" as="geometry" />
        </mxCell>
        <mxCell id="gyNcbMQ7tzNAgJM0qvGM-9" value="Apollo Graphql Server" style="text;html=1;align=center;verticalAlign=middle;resizable=0;points=[];autosize=1;strokeColor=none;fillColor=none;" vertex="1" parent="gyNcbMQ7tzNAgJM0qvGM-8">
          <mxGeometry x="35" y="60" width="130" height="20" as="geometry" />
        </mxCell>
        <mxCell id="gyNcbMQ7tzNAgJM0qvGM-10" value="Request from User Interface for Data" style="text;html=1;strokeColor=none;fillColor=none;align=center;verticalAlign=middle;whiteSpace=wrap;rounded=0;" vertex="1" parent="1">
          <mxGeometry x="260" y="150" width="60" height="30" as="geometry" />
        </mxCell>
        <mxCell id="gyNcbMQ7tzNAgJM0qvGM-11" value="" style="endArrow=classic;html=1;rounded=0;exitX=0.25;exitY=1;exitDx=0;exitDy=0;entryX=0.25;entryY=0;entryDx=0;entryDy=0;" edge="1" parent="1" source="gyNcbMQ7tzNAgJM0qvGM-2" target="gyNcbMQ7tzNAgJM0qvGM-8">
          <mxGeometry width="50" height="50" relative="1" as="geometry">
            <mxPoint x="455" y="120" as="sourcePoint" />
            <mxPoint x="370" y="198" as="targetPoint" />
          </mxGeometry>
        </mxCell>
        <mxCell id="gyNcbMQ7tzNAgJM0qvGM-12" value="Structured data returned to the client" style="text;html=1;strokeColor=none;fillColor=none;align=center;verticalAlign=middle;whiteSpace=wrap;rounded=0;" vertex="1" parent="1">
          <mxGeometry x="460" y="140" width="60" height="30" as="geometry" />
        </mxCell>
        <mxCell id="gyNcbMQ7tzNAgJM0qvGM-13" value="ReactJS" style="text;html=1;align=center;verticalAlign=middle;resizable=0;points=[];autosize=1;strokeColor=none;fillColor=none;" vertex="1" parent="1">
          <mxGeometry x="365" y="145" width="60" height="20" as="geometry" />
        </mxCell>
      </root>
    </mxGraphModel>
  </diagram>
</mxfile>
